<?xml version="1.0" encoding="utf-8"?>
<!-- Generator: Adobe Illustrator 19.2.1, SVG Export Plug-In . SVG Version: 6.00 Build 0)  -->
<svg version="1.1" id="Layer_1" xmlns="http://www.w3.org/2000/svg" xmlns:xlink="http://www.w3.org/1999/xlink" x="0px" y="0px"
	 width="50px" height="50px" viewBox="0 0 50 50" style="enable-background:new 0 0 50 50;" xml:space="preserve">
<style type="text/css">
	.st0{fill:none;}
	.st1{fill:#FFFFFF;}
</style>
<circle class="st0" cx="25" cy="25" r="25"/>
<g>
	<path class="st1" d="M37,17.8c0,0.7-0.2,1.4-0.7,2s-1,1.2-1.6,1.6c-3.4,2.3-5.4,3.8-6.3,4.4c-0.1,0.1-0.3,0.2-0.6,0.4
		c-0.3,0.2-0.5,0.4-0.7,0.5s-0.4,0.3-0.7,0.4c-0.3,0.2-0.5,0.3-0.8,0.4c-0.2,0.1-0.5,0.1-0.7,0.1l0,0l0,0c-0.2,0-0.4,0-0.7-0.1
		c-0.2-0.1-0.5-0.2-0.8-0.4c-0.3-0.2-0.5-0.3-0.7-0.4s-0.4-0.3-0.7-0.5c-0.3-0.2-0.5-0.3-0.6-0.4c-0.8-0.6-2-1.4-3.5-2.4
		c-1.5-1.1-2.4-1.7-2.7-1.9c-0.6-0.4-1.1-0.9-1.6-1.5c-0.5-0.7-0.7-1.3-0.7-1.8c0-0.7,0.2-1.3,0.6-1.7c0.4-0.5,0.9-0.7,1.6-0.7h19.7
		c0.6,0,1.1,0.2,1.5,0.6C36.8,16.8,37,17.3,37,17.8z M37,21.8v10.6c0,0.6-0.2,1.1-0.6,1.5s-0.9,0.6-1.5,0.6H15.1
		c-0.6,0-1.1-0.2-1.5-0.6C13.2,33.5,13,33,13,32.4V21.8c0.4,0.4,0.8,0.8,1.4,1.2c3.2,2.2,5.5,3.7,6.7,4.6c0.5,0.4,0.9,0.7,1.2,0.9
		s0.7,0.4,1.3,0.6c0.5,0.2,1,0.3,1.5,0.3l0,0l0,0c0.5,0,0.9-0.1,1.5-0.3c0.5-0.2,0.9-0.4,1.3-0.6c0.3-0.2,0.7-0.5,1.2-0.9
		c1.5-1.1,3.7-2.6,6.7-4.6C36.2,22.6,36.6,22.2,37,21.8z"/>
</g>
<rect x="-56.1" y="-36.2" class="st0" width="82.6" height="22.9"/>
<text transform="matrix(1 0 0 1 -56.0811 -27.7227)" style="font-family:'MyriadPro-Regular'; font-size:12px;"></text>
</svg>
