<?xml version="1.0" encoding="utf-8"?>
<!-- Generator: Adobe Illustrator 19.2.1, SVG Export Plug-In . SVG Version: 6.00 Build 0)  -->
<svg version="1.1" id="Layer_1" xmlns="http://www.w3.org/2000/svg" xmlns:xlink="http://www.w3.org/1999/xlink" x="0px" y="0px"
	 viewBox="0 0 50 50" style="enable-background:new 0 0 50 50;" xml:space="preserve">
<style type="text/css">
	.st0{fill:none;}
	.st1{fill:#FFFFFF;}
</style>
<circle class="st0" cx="25" cy="25" r="25"/>
<g>
	<path class="st1" d="M34.4,25.3c0,2-0.6,3.9-1.8,5.5c-1.2,1.6-2.7,2.8-4.6,3.4c-0.2,0-0.4,0-0.5-0.1c-0.1-0.1-0.2-0.2-0.2-0.4v-2.6
		c0-0.8-0.2-1.4-0.6-1.7c0.5,0,0.9-0.1,1.3-0.2c0.4-0.1,0.8-0.3,1.2-0.5c0.4-0.2,0.7-0.5,1-0.8c0.3-0.3,0.5-0.8,0.6-1.3
		c0.2-0.5,0.3-1.1,0.3-1.8c0-1-0.3-1.8-1-2.5c0.3-0.7,0.3-1.6-0.1-2.5c-0.2-0.1-0.6,0-1,0.1c-0.4,0.2-0.8,0.3-1.1,0.5l-0.5,0.3
		c-0.8-0.2-1.5-0.3-2.3-0.3c-0.8,0-1.6,0.1-2.3,0.3c-0.1-0.1-0.3-0.2-0.5-0.3c-0.2-0.1-0.6-0.3-1-0.5c-0.5-0.2-0.8-0.2-1.1-0.2
		c-0.4,0.9-0.4,1.8-0.1,2.5c-0.6,0.7-1,1.5-1,2.5c0,0.7,0.1,1.3,0.3,1.8c0.2,0.5,0.4,1,0.6,1.3c0.3,0.3,0.6,0.6,1,0.8
		c0.4,0.2,0.8,0.4,1.1,0.5c0.4,0.1,0.8,0.2,1.3,0.2c-0.3,0.3-0.5,0.7-0.6,1.3c-0.2,0.1-0.4,0.1-0.6,0.2c-0.2,0-0.4,0.1-0.7,0.1
		c-0.3,0-0.5-0.1-0.8-0.3c-0.3-0.2-0.5-0.4-0.7-0.8c-0.2-0.3-0.4-0.5-0.6-0.6c-0.2-0.2-0.4-0.3-0.6-0.3l-0.2,0c-0.2,0-0.3,0-0.4,0.1
		c-0.1,0-0.1,0.1-0.1,0.1c0,0.1,0.1,0.1,0.1,0.2c0,0.1,0.1,0.1,0.2,0.1l0.1,0.1c0.2,0.1,0.4,0.2,0.5,0.5c0.2,0.2,0.3,0.4,0.4,0.6
		l0.1,0.3c0.1,0.3,0.3,0.6,0.5,0.8c0.3,0.2,0.5,0.3,0.8,0.4c0.3,0.1,0.6,0.1,0.9,0.1c0.3,0,0.5,0,0.7,0l0.3,0c0,0.3,0,0.7,0,1.1
		c0,0.4,0,0.6,0,0.7c0,0.1-0.1,0.3-0.2,0.4c-0.1,0.1-0.3,0.1-0.5,0.1c-1.9-0.6-3.4-1.8-4.6-3.4c-1.2-1.6-1.8-3.5-1.8-5.5
		c0-1.7,0.4-3.3,1.3-4.7c0.8-1.4,2-2.6,3.4-3.4c1.4-0.8,3-1.3,4.7-1.3c1.7,0,3.3,0.4,4.7,1.3c1.4,0.8,2.6,2,3.4,3.4
		C34,22,34.4,23.6,34.4,25.3z"/>
</g>
</svg>
