<?xml version="1.0" encoding="utf-8"?>
<!-- Generator: Adobe Illustrator 19.2.1, SVG Export Plug-In . SVG Version: 6.00 Build 0)  -->
<svg version="1.1" id="Layer_1" xmlns="http://www.w3.org/2000/svg" xmlns:xlink="http://www.w3.org/1999/xlink" x="0px" y="0px"
	 viewBox="0 0 50 50" style="enable-background:new 0 0 50 50;" xml:space="preserve">
<style type="text/css">
	.st0{fill:none;}
	.st1{fill:#FFFFFF;}
</style>
<circle class="st0" cx="25" cy="25" r="25"/>
<g>
	<path class="st1" d="M34.2,22.2v5.6c0,0.3-0.1,0.5-0.3,0.7l-8.4,5.6c-0.1,0.1-0.3,0.1-0.4,0.1s-0.3,0-0.4-0.1l-8.4-5.6
		c-0.2-0.2-0.3-0.4-0.3-0.7v-5.6c0-0.3,0.1-0.5,0.3-0.7l8.4-5.6c0.1-0.1,0.3-0.1,0.4-0.1s0.3,0,0.4,0.1l8.4,5.6
		C34.1,21.7,34.2,21.9,34.2,22.2z M17.4,26.3l2-1.3l-2-1.3V26.3z M20.8,24l3.4-2.3v-3.7L18,22.2L20.8,24z M18,27.8l6.2,4.1v-3.7
		L20.8,26L18,27.8z M25,26.9l2.8-1.9L25,23.1L22.2,25L25,26.9z M29.2,24l2.8-1.8l-6.2-4.1v3.7L29.2,24z M25.8,31.9l6.2-4.1L29.2,26
		l-3.4,2.3V31.9z M30.6,25l2,1.3v-2.6L30.6,25z"/>
</g>
</svg>