<?xml version="1.0" encoding="utf-8"?>
<!-- Generator: Adobe Illustrator 19.2.1, SVG Export Plug-In . SVG Version: 6.00 Build 0)  -->
<svg version="1.1" id="Layer_1" xmlns="http://www.w3.org/2000/svg" xmlns:xlink="http://www.w3.org/1999/xlink" x="0px" y="0px"
	 viewBox="0 0 50 50" style="enable-background:new 0 0 50 50;" xml:space="preserve">
<style type="text/css">
	.st0{fill:#FFFFFF;}
</style>
<g>
	<path class="st0" d="M20,17.9c0,0.6-0.2,1.1-0.6,1.5s-1,0.6-1.7,0.6l0,0c-0.7,0-1.2-0.2-1.7-0.6c-0.4-0.4-0.6-0.9-0.6-1.5
		s0.2-1.1,0.6-1.5c0.4-0.4,1-0.6,1.7-0.6c0.7,0,1.3,0.2,1.7,0.6C19.8,16.8,20,17.2,20,17.9z M19.7,21.8v12.5h-4.2V21.8H19.7z
		 M34.7,27.1v7.1h-4.1v-6.7c0-0.9-0.2-1.6-0.5-2.1s-0.9-0.7-1.6-0.7c-0.5,0-1,0.1-1.3,0.4c-0.4,0.3-0.6,0.6-0.8,1.1
		c-0.1,0.3-0.1,0.6-0.1,1v7H22c0-3.3,0-6.1,0-8.1c0-2.1,0-3.3,0-3.7v-0.6h4.1v1.8l0,0c0.2-0.3,0.3-0.5,0.5-0.7s0.4-0.4,0.7-0.7
		c0.3-0.2,0.7-0.4,1.1-0.5s0.9-0.2,1.4-0.2c1.4,0,2.6,0.5,3.5,1.4C34.2,23.9,34.7,25.2,34.7,27.1z"/>
</g>
</svg>