<svg version="1.1" id="Layer_1" xmlns="http://www.w3.org/2000/svg" xmlns:xlink="http://www.w3.org/1999/xlink" x="0px" y="0px"
	 viewBox="0 0 50 50" style="enable-background:new 0 0 50 50;" xml:space="preserve">
<style type="text/css">
	.st0{fill:none;}
	.st1{fill:dodgerblue;}
</style>
<circle class="st0" cx="25" cy="25" r="25"/>
<g>
	<path class="st1" d="M31,27.1v7.2l0,0.4v0H19.4l-0.4,0h0v-7.5h1.2v6.3h9.5v-6.3H31z M28.5,30.6v1.5l-7.2,0v-1.5L28.5,30.6z
		 M21.5,28l7.2,0.7l-0.1,1.5l-7.2-0.7L21.5,28z M22.2,24.7l7,1.9l-0.4,1.5l-7-1.9L22.2,24.7z M23.9,21.2l6.2,3.7l-0.8,1.3l-6.2-3.7
		L23.9,21.2z M27.5,17.8l4.1,6l-1.3,0.9l-4.1-6L27.5,17.8z M32.2,16.3l1.2,7.1l-1.5,0.3l-1.2-7.1L32.2,16.3z"/>
</g>
</svg>